<?xml version="1.0" encoding="UTF-8"?>
<svg id="Layer_2" data-name="Layer 2" xmlns="http://www.w3.org/2000/svg" viewBox="0 0 453.99 68.88">
  <defs>
    <style>
      .cls-1 {
        fill: #fff;
      }
    </style>
  </defs>
  <g id="Layer_1-2" data-name="Layer 1">
    <g>
      <g>
        <path class="cls-1" d="M52.35,29.61l9.91-4.32c2.8-1.27,6.06-2.62,9.78-4.07,2.29-3.47,4.7-6.65,7.24-9.53,5.5-6.1,10.63-9.36,15.37-9.78,1.27-.08,2.33,.15,3.18,.7,.85,.55,1.23,1.46,1.14,2.73-.42,4.32-5.59,8.51-15.5,12.58-2.12,.85-3.26,1.31-3.43,1.4-2.29,4.41-4.53,8.81-6.73,13.21-2.79,5.08-5.55,9.15-8.26,12.2-8.56,9.57-19.53,14.74-32.91,15.5-8.98,.51-15.88-.93-20.71-4.32-5.25,4.74-8.64,8.68-10.16,11.82-.42,.85-.76,1.23-1.02,1.14-.17-.08-.25-.3-.25-.63,.09-.42,.17-.72,.25-.89,1.44-3.9,4.62-8.13,9.53-12.71-3.47-3.05-5.04-7.03-4.7-11.94,.25-3.05,1.35-5.8,3.3-8.26,3.22-4.07,7.54-7.12,12.96-9.15,5.17-1.95,10.46-2.75,15.88-2.41,1.69,.08,3.64,.42,5.84,1.02,4.32,1.1,7.37,2.97,9.15,5.59l.13,.13Zm-2.29,.76c-1.86-3.73-6.31-5.84-13.34-6.35-6.35-.42-12.16,.89-17.41,3.94-6.02,3.47-9.28,8.22-9.78,14.23-.34,4.15,.59,7.54,2.8,10.17,4.83-3.9,8.6-6.69,11.31-8.39-1.52-1.35-2.41-2.96-2.67-4.83-.09-.25-.09-.55,0-.89,.08-.34,.21-.46,.38-.38,.17,.34,.3,.68,.38,1.02,.42,1.7,1.44,3.18,3.05,4.45,4.91-3.13,10.59-6.14,17.03-9.02l8.39-3.81-.13-.13Zm-14.87,17.66c-3.73,0-6.95-.89-9.66-2.67l-3.81,2.67c-3.81,2.63-6.48,4.62-8,5.97,3.56,3.47,8.81,5.21,15.76,5.21,1.19,0,2.46-.04,3.81-.13,12.54-1.02,23.33-9.91,32.4-26.68,1.35-2.46,3.22-5.55,5.59-9.28v-.13c-5.76,2.37-11.82,5-18.17,7.88,.51,1.36,.76,2.67,.76,3.94-.09,4.07-2.25,7.37-6.48,9.91-3.73,2.2-7.75,3.3-12.07,3.3h-.13Zm-.13-1.27c3.73,0,7.16-1.02,10.29-3.05,3.64-2.37,5.5-5.29,5.59-8.77,0-.93-.13-1.95-.38-3.05-12.71,6.35-20.71,10.63-24.01,12.83,2.54,1.36,5.34,2.03,8.39,2.03h.13Zm45.87-29.22c1.95-.93,3.98-1.86,6.1-2.79,6.44-2.79,9.95-5.93,10.55-9.4,.17-.93-.04-1.59-.64-1.97-.59-.38-1.36-.49-2.29-.32-4.07,.59-8.64,5.38-13.72,14.36v.13Z"/>
        <path class="cls-1" d="M177.83,26.18c3.05-3.73,5.63-6.48,7.75-8.26-.51-.51-1.14-.77-1.91-.77-1.86,0-4.53,1.74-8,5.21-4.75,4.75-8.73,9.15-11.95,13.22-.67,.08-1.27,.13-1.77,.13h-1.78c-2.21,.08-3.35,.33-3.43,.76-.09,.34,.04,.55,.38,.63,.17,.09,.51,.09,1.01,0,1.53-.08,3.05-.12,4.58-.12l-3.56,4.7c-1.52,2-2.8,3.82-3.8,5.45-.01,0-.01,.01-.01,.01-.14,.12-.28,.24-.43,.38-4.82,4.24-8.51,6.65-11.05,7.24-1.1,.26-1.65,.05-1.65-.63,0-1.1,1.65-3.69,4.95-7.75,1.87-2.29,2.88-3.52,3.05-3.69,1.19-1.6,1.86-2.96,2.03-4.06,.34-2.29-.97-3.43-3.93-3.43-3.31,0-7.92,2.28-13.85,6.86-1.44,1.1-3.43,2.67-5.97,4.7l-4.96,4.19-.38-.12c1.69-2.21,4.15-5.59,7.37-10.17,.51-.93,.76-1.78,.76-2.54,0-1.89-1-2.82-2.99-2.92-.39,0-.46,.35-.46,.35-.36,1.02-2.36,3.88-3.16,4.76-1.41,1.65-2.73,3.29-3.97,4.93-.26,.25-2.29,1.99-6.1,5.21-2.54,2.12-4.96,3.64-7.24,4.57-.6,.25-1.06,.17-1.4-.25-.17-.17-.25-.38-.25-.64,0-1.27,1.73-4.06,5.2-8.39,1.19-1.52,3.43-4.23,6.74-8.13,.84-.93,1.18-1.52,1.01-1.78-.25-.25-1.06-.33-2.41-.25-2.67,.08-2.34,0-2.95,.61l-7.25,7.17s-.08,.07-.12,.1c-5.43,5.42-11.27,10.33-14.74,11.43-1.11,.34-1.66,.09-1.66-.76,0-.93,.85-2.67,2.55-5.21,1.27-1.86,3.43-4.57,6.48-8.13,2.79-3.22,4.1-4.96,3.93-5.21-.25-.34-1.06-.47-2.41-.38-1.95,.08-4.32,1.69-7.12,4.83h-.12c.17-.51,.25-1.02,.25-1.53,0-1.86-.97-2.96-2.92-3.3-3.05-.51-7.33,.67-12.83,3.55-4.23,2.22-8.39,6.99-8.39,6.99-2.03,2.29-3.22,4.58-3.56,6.86-.25,1.7,.11,2.99,1.08,3.88,.98,.89,2.35,1.29,4.13,1.21,4.32-.26,8.98-2.67,13.98-7.25h.13c-1.36,1.53-1.95,3.05-1.78,4.58,.17,1.78,1.39,2.67,3.68,2.67,3.05,0,6.69-1.7,10.93-5.09,1.17-.94,2.24-1.81,3.21-2.62-.23,.33-.43,.64-.61,.95-.68,1.11-1.06,2.38-1.17,3.68v.03c-.08,2.2,1.19,3.3,3.81,3.3,2.97,0,6.65-1.73,11.06-5.21,1.32-1.04,2.53-2.03,3.62-2.96-1.32,1.96-2.51,3.91-3.59,5.86-.5,.94-.59,1.54-.25,1.8,.34,.17,.97,.26,1.91,.26,1.43,0,3.81-1.42,7.11-4.25l3.3-2.83c3.73-3.17,7.97-6.48,12.71-9.91,1.27-.94,2.73-1.78,4.38-2.51,1.65-.72,2.73-.96,3.24-.71,.34,.17,.47,.43,.38,.77-.08,.34-.25,.68-.5,1.01-3.31,3.65-6.19,7.16-8.64,10.55-1.11,1.52-1.78,3.05-2.04,4.57-.34,2.21,.89,3.31,3.69,3.31h.12c2.8,0,6.57-1.7,11.31-5.09,.6-.46,1.64-1.32,3.12-2.59-.84,1.69-1.32,3.11-1.42,4.25-.26,2.37,1.02,3.55,3.81,3.55,3.39,0,7.28-1.73,11.69-5.21,3.22-2.54,5.76-4.74,7.62-6.6,.93-.93,1.27-1.48,1.02-1.65-.25-.26-.81,0-1.65,.76-3.3,3.3-6.35,5.76-9.15,7.37l-2.54,1.52c-.68,.43-1.23,.68-1.65,.76-.68,.18-1.23,.09-1.65-.25-.43-.34-.6-.85-.51-1.52,0-.77,.89-2.67,2.67-5.72,2.54-4.41,4.91-7.84,7.11-10.29,1.44-.09,2.71-.13,3.81-.13h5.34c.42,0,.72-.21,.89-.64,.34-.5-.26-.76-1.78-.76h-3.3c-1.19,0-2.5,.04-3.94,.13,.76-.93,2.03-2.5,3.81-4.7l3.94-4.7Zm-94.65,23.63c-4.4,3.98-7.96,5.97-10.67,5.97-1.02,0-1.57-.42-1.65-1.27-.17-1.86,2.2-5.21,7.11-10.04,5.42-5.33,9.28-8,11.56-8h.13c1.61,0,2.37,.76,2.29,2.28-.17,2.29-3.09,5.98-8.77,11.06Z"/>
        <path class="cls-1" d="M129.85,19.32c-.26-.59-.81-.89-1.66-.89h-.12c-3.99,0-5.81,1.61-5.47,4.83v.02c0,1.13,1.15,1.95,2.23,1.64,1.53-.45,2.95-1.51,4.25-3.19,.77-.93,1.02-1.73,.77-2.41Z"/>
      </g>
      <path class="cls-1" d="M248.89,44.86c-4.92,4.91-9.83,8.25-14.74,10.03-2.04,.76-3.69,1.1-4.96,1.02-2.12-.08-3.09-1.06-2.92-2.92,.08-.51,.34-1.44,.76-2.8,4.91-1.52,8.64-2.88,11.18-4.06,5.09-2.46,7.75-5.04,8.01-7.76,.08-.93-.26-1.71-1.02-2.35-.76-.63-1.65-.95-2.67-.95h-.12c-3.05,0-7.07,1.36-12.07,4.07-4.62,2.5-7.63,6.6-7.63,6.6-1.3,1.71-2.21,3.48-2.71,5.33-.53,.22-1.09,.49-1.69,.82-3.37,1.9-4.41,3.05-5.37,3.05s-1.18-.37-1.18-1.13c0-.43,.07-.92,.66-1.85,.29-.53,.91-1.41,1.75-2.6l2.67-3.81c2.29-3.22,4.36-6.02,6.23-8.39l12.7-15.75c4.83-5.85,9.7-11.31,14.61-16.39l3.05-3.05c-.08-.6-.72-.89-1.9-.89-1.61,0-3.18,.72-4.7,2.16-9.15,8.81-19.53,20.75-31.13,35.83h-.13c.25-.93,.06-1.78-.57-2.54-.64-.77-1.42-1.23-2.35-1.4-1.79-.24-3.98,.02-6.55,.83-4.07,1.27-7.83,3.4-11.09,6.15-2.47,2.09-3.58,3.56-3.58,3.56-2.03,2.29-3.22,4.58-3.56,6.87-.25,1.69,.11,2.98,1.08,3.87,.98,.89,2.35,1.29,4.13,1.21,2.12-.17,4.62-1.02,7.5-2.54,1.44-.77,3.6-2.33,6.48-4.71h.12c-1.35,1.53-1.95,3.05-1.77,4.58,.16,1.78,1.35,2.67,3.55,2.67h.13c2.71,0,3.62-.75,7.84-3.89,.95-.69,1.91-1.25,2.85-1.7-.05,.23-.09,.46-.12,.7-.17,3.48,2.16,5.21,6.99,5.21,4.58,0,9.53-1.82,14.87-5.46,2.88-1.95,5.54-4.15,8-6.61,.93-.93,1.27-1.52,1.02-1.78-.34-.25-.89,0-1.65,.77Zm-21.1,3.93c1.44-2.45,3.22-4.82,5.34-7.11,2.71-2.97,5.08-4.62,7.12-4.96,1.27,0,1.78,.55,1.52,1.65-.17,2.12-1.9,4.32-5.21,6.61-1.95,1.36-4.87,2.67-8.77,3.94v-.13Zm-22.26,.95c-4.4,3.98-7.92,5.97-10.54,5.97h-.13c-1.02,0-1.57-.42-1.65-1.27-.17-1.86,2.2-5.21,7.11-10.04,5.42-5.33,9.32-8,11.69-8,1.61,0,2.37,.76,2.29,2.29-.09,2.2-3.01,5.88-8.77,11.05Z"/>
      <path class="cls-1" d="M446.36,35.33s-.33-.21-.61-.32c-.2-.08-1.07-.41-1.94-.42-1.29,0-2.23,.18-2.86,.27-3.46,.47-6.98,1.69-10.67,3.56-3.02,1.53-5.85,3.98-7.24,5.84-.3,.41-.59,.81-.86,1.21-1.53,2.28-3.46,4.26-5.76,5.76-1.93,1.25-3.99,2.38-6.18,3.38v-.12c3.18-2.07,4.85-5.33,5.01-9.78,0-.88-.04-2.51-.12-4.9-.08-1.58,.2-2.66,.84-3.22,3.34-2.22,5.01-3.49,5.01-3.81s-.52-.48-1.55-.48c-1.36,0-2.42,.55-3.46,1.31-.52,.38-1.2,1-1.91,2.03-2.86,2.47-6.13,4.97-9.78,7.51-1.99,1.44-2.95,2.31-2.87,2.63,.08,.08,.16,.12,.24,.12,.24,0,.56-.12,.96-.36,.95-.4,2.44-1.35,4.47-2.86,2.03-1.51,3.95-3.02,5.78-4.53v.11c-.55,.8-1.43,2.63-2.62,5.49-1.35,3.34-2.27,5.45-2.74,6.32-2.47,4.54-5.21,6.8-8.23,6.8-2.47,0-3.62-.99-3.46-2.98,.08-1.11,.93-2.25,2.56-3.4s2.57-2.21,2.81-3.16c.23-1,.09-1.7-.44-2.1-.07-.05-.13-.09-.21-.13-.34-.18-.8-.27-1.38-.27-1.51-.16-2.89,.41-4.12,1.72-1.2,1.29-1.94,2.71-2.18,4.26-2.11,1.42-4.38,2.69-6.81,3.8v-.12c3.18-2.07,4.85-5.33,5.01-9.78,0-.88-.04-2.51-.12-4.9-.08-1.58,.2-2.66,.84-3.22,3.34-2.22,5.01-3.49,5.01-3.81s-.52-.48-1.55-.48c-1.36,0-2.42,.55-3.46,1.31-.52,.38-1.19,1-1.91,2.03-2.86,2.47-6.13,4.97-9.78,7.51-.96,.7-1.68,1.26-2.16,1.7-.01,0-.02,.01-.03,.02-.49,.45-.71,.75-.67,.91,.07,.08,.15,.12,.23,.12,.24,0,.56-.12,.96-.36,.12-.05,.25-.11,.38-.18,.95-.47,2.31-1.36,4.09-2.68,2.03-1.51,3.96-3.02,5.79-4.53v.11c-.56,.8-1.43,2.63-2.63,5.49-1.35,3.34-2.26,5.45-2.74,6.32-2.47,4.54-5.21,6.8-8.23,6.8-2.47,0-3.62-.99-3.46-2.98,.08-1.11,.93-2.25,2.56-3.4s2.57-2.21,2.81-3.16c.06-.25,.09-.48,.1-.69,.03-.42-.04-.76-.22-1.04-.29-.51-.94-.77-1.91-.77-1.51-.16-2.88,.41-4.12,1.72-1.23,1.32-1.96,2.77-2.2,4.36-.03,.15-.05,.3-.06,.45-.58,.39-1.18,.81-1.82,1.24-2.77,1.9-4.66,2.54-5.59,2.04-.17-.17-.25-.51-.25-1.02,0-1.1,1.78-3.86,5.33-8.26,1.27-1.52,3.52-4.23,6.74-8.13,.76-.93,.93-1.53,.51-1.78-.51-.17-1.32-.26-2.42-.26-1.36,0-2.58,.47-3.68,1.4-2.46,2.12-7.04,5.81-13.73,11.06l-5.21,3.81c-3.04,2.2-5.16,3.3-6.35,3.3-.42,0-.76-.13-1.01-.38-.6-.6,.12-2.32,2.16-5.15,1.6-2.32,3.74-5.13,6.41-8.43,2.67-3.31,3.96-5.05,3.88-5.22-.17-.34-.93-.4-2.29-.39-2.58,.04-2.35-.1-3.56,1.11,0,0-4.42,4.69-8.14,9.03-.1,.09-.22,.18-.33,.28-6.95,5.93-13.77,8.9-20.46,8.9-2.8,0-7.16-.76-13.09-2.29-1.78-.42-4.95-1.18-9.53-2.29,6.27-4.15,11.82-9.31,16.65-15.5,1.77-2.2,3.72-4.87,5.84-8,1.52,.17,3.81,.25,6.86,.25,12.37-.17,21.86-2.92,28.46-8.26,2.37-1.94,3.56-4.32,3.56-7.11,0-3.39-2.24-5.63-6.73-6.74-1.53-.33-3.14-.46-4.83-.38-4.57,.34-8.39,1.15-11.44,2.42-5.33-4.41-12.07-6.61-20.2-6.61-4.66,0-8.72,.89-12.2,2.67-4.32,2.2-6.48,5.42-6.48,9.65v.13c0,3.39,1.86,6.31,5.59,8.77,2.88,1.95,6.27,3.3,10.17,4.06-1.53,2.04-3.14,4.37-4.83,6.99l-4.07,6.36c-3.13,4.91-6.01,8.55-8.64,10.92-.84-.33-10.13-2.5-15.09-3.11-9.28-1.14-22.99,1.99-19.95,7.85,2.01,3.85,11.11,4.8,17.76,4.41,5.25-.3,10.04-1.63,14.36-4.62,.85-.62,1.78-1.32,2.8-2.11,6.6,2.62,10.54,4.15,11.81,4.57,4.41,1.44,8.56,2.16,12.46,2.16,5.59,0,11.09-2.41,16.51-7.24,.24-.21,.48-.43,.75-.67-.23,.35-.41,.66-.53,.92-.42,.94-.68,1.74-.76,2.42-.25,2.37,1.14,3.55,4.19,3.55,2.88,0,7.41-2.32,13.6-6.98,2.11-1.61,5.12-3.98,9.02-7.12l.25,.26c-1.44,1.44-2.62,2.71-3.55,3.81-2.29,2.71-3.43,5.04-3.43,6.99s1.31,3.04,3.93,3.04,6.24-1.6,10.57-4.81c.02,.18,.04,.36,.08,.54,.55,3.11,2.94,4.66,7.15,4.66,5.72,0,11.37-1.89,16.94-5.67,0,.35,.04,.69,.11,1.01,.55,3.11,2.94,4.66,7.15,4.66,6.28,0,12.55-2.36,18.66-6.91,.35-.26,.74-.53,1.13-.72-.14,.55-.24,1.12-.29,1.7-.42,3.73,1.65,5.59,6.23,5.59,3.39,0,7.24-1.4,11.56-4.19,1.35-.85,2.33-1.53,2.92-2.04,.15,.1,.47,.19,.88,.27,1.68,.31,3.42-.03,4.91-.86,2.28-1.26,4.13-2.46,6.92-5.25,.93-.93,1.27-1.48,1.01-1.65-.17-.17-1.4,1-3.43,2.52-2.79,2.2-4.4,3.03-5.08,3.45-2.7,1.21-3.94,.81-4.19,.63,4.49-4.06,6.9-7.49,7.24-10.29,.24-2.23-.46-3.89-2.09-4.99m-109.43-22.5c1.39,2.72,2.05,4.2,1.94,4.42,.14-.12,.22-.5,.22-1.11,0-2.21-1.06-4.79-3.18-7.75,2.97-2.04,6.31-3.1,10.04-3.18,2.37-.08,4.38,.47,6.03,1.65,1.66,1.19,2.23,2.92,1.72,5.21-.76,3.47-3.56,6.44-8.39,8.89-4.23,2.21-8.43,3.56-12.58,4.07-2.03,.25-4.32,.43-6.86,.51-2.46,.08-4.61,0-6.48-.26h-.12c5.84-8.3,10.75-13.63,14.73-16.01,.94,.77,1.91,1.95,2.93,3.56Zm-34.56,7.5c-3.73-2.37-5.59-5.08-5.59-8.13v-.13c0-3.56,2.03-6.27,6.1-8.13,3.13-1.44,6.73-2.16,10.8-2.16,6.86,0,13.04,1.82,18.55,5.46-3.05,1.19-6.7,3.65-10.93,7.37-3.73,3.22-6.78,6.4-9.15,9.53-3.73-.76-6.99-2.03-9.78-3.81Zm-10.3,31c-4.23,3.81-9.77,5.71-14.43,5.71-6.82,0-11.73-.73-13.49-3.52-1.49-2.35,0-6.83,11-6.09,5.23,.35,13.88,3.18,16.92,3.77v.13Zm150.78-15.94c.65-.27,1.51-.38,2.04,.1,.34,.31,.38,.59,.38,1.4,0,1.44-.12,2.5-.38,3.18-2.79,1.1-4.7,3.18-5.71,6.22-.34,1.02-.56,1.83-.64,2.42-4.57,5.17-8.51,7.75-11.82,7.75-1.35,0-1.95-.72-1.77-2.16,.33-2.88,2.79-6.61,7.37-11.18,0,0,6.19-5.91,10.53-7.73Z"/>
    </g>
  </g>
</svg>